<svg xmlns="http://www.w3.org/2000/svg" width="60" height="60" viewBox="0 0 60 60">
  <g fill="none" fill-rule="evenodd">
    <polygon points="0 60 60 60 60 0 0 0"/>
    <polygon fill="#C2E2FF" points="45.419 55 11.419 55 10.581 7 44.581 7"/>
    <polygon fill="#28BF9A" points="39.843 22 15.843 22 15.669 12 39.669 12"/>
    <polygon fill="#192C55" points="18.808 20.011 18.703 15.011 19.703 14.99 19.808 19.99"/>
    <path fill="#116DFF" d="M44.1919,23.9966 L44.1919,23.9966 C38.1179,23.9966 33.1079,19.0726 33.0019,12.9986 L33.0019,12.9976 C32.8959,6.9246 37.7339,1.9996 43.8079,1.9996 C49.8819,1.9996 54.8919,6.9246 54.9979,12.9976 L54.9979,12.9986 C55.1049,19.0726 50.2659,23.9966 44.1919,23.9966"/>
    <path fill="#FFF" d="M22.2275,44 L22.3315,50 L16.3315,50 L16.2275,44 L22.2275,44 Z M40.2275,44 L40.3315,50 L34.3315,50 L34.2275,44 L40.2275,44 Z M31.2275,44 L31.3315,50 L25.3315,50 L25.2275,44 L31.2275,44 Z M22.0703,35 L22.1743,41 L16.1743,41 L16.0703,35 L22.0703,35 Z M40.0703,35 L40.1743,41 L34.1743,41 L34.0703,35 L40.0703,35 Z M31.0703,35 L31.1743,41 L25.1743,41 L25.0703,35 L31.0703,35 Z M21.9126,26 L22.0176,32 L16.0176,32 L15.9126,26 L21.9126,26 Z M39.9126,26 L40.0176,32 L34.0176,32 L33.9126,26 L39.9126,26 Z M30.9126,26 L31.0176,32 L25.0176,32 L24.9126,26 L30.9126,26 Z M47.1733,14.1211 C47.7123,14.1211 48.2093,14.3321 48.5723,14.7161 C48.9373,15.1001 49.1223,15.6081 49.0933,16.1471 C49.0363,17.2351 48.1043,18.1211 47.0163,18.1211 C46.4773,18.1211 45.9803,17.9101 45.6163,17.5261 C45.2523,17.1421 45.0673,16.6341 45.0953,16.0951 C45.1523,15.0071 46.0843,14.1211 47.1733,14.1211 Z M47.7642,8.6106 L48.4522,9.3346 L39.9722,17.3936 L39.2842,16.6686 L47.7642,8.6106 Z M47.1733,15.1211 C46.6083,15.1211 46.1233,15.5811 46.0943,16.1471 C46.0803,16.4101 46.1683,16.6551 46.3413,16.8381 C46.5153,17.0201 46.7543,17.1211 47.0163,17.1211 C47.5813,17.1211 48.0653,16.6611 48.0943,16.0951 C48.1093,15.8321 48.0203,15.5871 47.8473,15.4031 C47.6743,15.2221 47.4343,15.1211 47.1733,15.1211 Z M40.9839,7.876 C41.5229,7.876 42.0199,8.087 42.3829,8.471 C42.7479,8.855 42.9329,9.363 42.9049,9.902 C42.8479,10.99 41.9159,11.875 40.8269,11.875 C40.2879,11.875 39.7909,11.664 39.4269,11.28 C39.0629,10.897 38.8779,10.389 38.9059,9.85 C38.9629,8.762 39.8959,7.876 40.9839,7.876 Z M40.9839,8.876 C40.4189,8.876 39.9349,9.336 39.9049,9.902 C39.8909,10.165 39.9789,10.41 40.1519,10.593 C40.3259,10.774 40.5649,10.875 40.8269,10.875 C41.3919,10.875 41.8769,10.415 41.9059,9.85 C41.9199,9.587 41.8319,9.342 41.6579,9.159 C41.4849,8.977 41.2459,8.876 40.9839,8.876 Z"/>
  </g>
</svg>
