<svg xmlns="http://www.w3.org/2000/svg" width="61" height="60" viewBox="0 0 61 60">
  <g fill="none" fill-rule="evenodd" transform="translate(1)">
    <polygon points="0 60 60 60 60 0 0 0"/>
    <path fill="#C2E2FF" d="M57.2004,41 L57.4624,56 L13.4624,56 L13.2004,41 L57.2004,41 Z M51.8689,22 L52.1309,37 L8.1309,37 L7.8689,22 L51.8689,22 Z M46.5373,3 L46.7993,18 L2.7993,18 L2.5373,3 L46.5373,3 Z"/>
    <path fill="#116DFF" d="M18.012,43.7825 C18.2226,43.5629 18.56361,43.54094 18.813414,43.715891 L18.893,43.7815 L20.797,45.6215 C21.0201111,45.8366111 21.055963,46.1710309 20.8975322,46.4133573 L20.829,46.4995 L19.779,47.5855 C19.472,47.9035 19.448,48.4075 19.722,48.7715 C20.312,49.5615 21.025,50.2475 21.834,50.8055 C22.1730909,51.0345909 22.608876,51.0240124 22.9167122,50.7910447 L23.005,50.7145 L24.02,49.6995 C24.2191111,49.5003889 24.5288395,49.4782654 24.7581509,49.6324273 L24.84,49.6985 L26.749,51.5405 C26.957,51.7413889 26.9880123,52.0568457 26.8364184,52.2860034 L26.771,52.3675 L26.571,52.5745 C25.933,53.2355 25,53.5245 24.081,53.3515 C23.116,53.1695 22.199,52.8305 21.363,52.3515 C20.1611538,51.6684231 19.1237574,50.7033107 18.3514861,49.5544786 L18.164,49.2635 C17.66,48.4405 17.285,47.5355 17.069,46.5725 C16.8786429,45.7247143 17.0866429,44.8510612 17.6217416,44.2045481 L17.751,44.0595 L17.75,44.0555 L18.012,43.7825 Z M23,26.6499 L23,32.9999 L12,32.9999 L12,26.6499 L17.5,31.1499 L23,26.6499 Z M22.2,26.0001 L17.5,29.8501 L12.8,26.0001 L22.2,26.0001 Z M11.14,4.9999 C13.35,4.9999 15.07,6.6299 15,8.6499 C14.9454545,10.0589909 14.0561983,11.7056851 13.1023291,13.0828452 L12.815,13.4874 L12.815,13.4874 L12.5284147,13.87274 L12.5284147,13.87274 L12.2471938,14.2358222 C12.2010274,14.2943121 12.155277,14.3517478 12.110039,14.4080659 L11.7193276,14.8830424 L11.7193276,14.8830424 L11.2683659,15.4047178 L11.2683659,15.4047178 L10.8691242,15.8431804 L10.8691242,15.8431804 L10.72,15.9999 L10.72,15.9999 L10.4598371,15.6989421 L10.4598371,15.6989421 L10.121875,15.2874 L10.121875,15.2874 L9.80497746,14.8830424 L9.80497746,14.8830424 L9.57175056,14.573604 L9.57175056,14.573604 L9.19995539,14.0572535 L9.19995539,14.0572535 L8.94386505,13.682662 C8.90094008,13.6184176 8.85795455,13.5533091 8.815,13.4874 L8.55837716,13.0828452 C8.47344853,12.9451292 8.38937641,12.8047178 8.30689331,12.6621183 L8.06494365,12.2282621 C7.43636364,11.0565116 6.95636364,9.77717273 7,8.6499 C7.08,6.6299 8.93,4.9999 11.14,4.9999 Z M11,7.5599 C10.22,7.5599 9.58,8.1999 9.58,8.9799 C9.58,9.7699 10.22,10.3999 11,10.3999 C11.78,10.3999 12.42,9.7699 12.42,8.9799 C12.42,8.1999 11.78,7.5599 11,7.5599 Z"/>
    <path fill="#192C55" d="M52.332,48 L52.332,49 L32.332,49 L32.332,48 L52.332,48 Z M47,29 L47,30 L28,30 L28,29 L47,29 Z M41.669,9.999 L41.669,11 L20.669,11 L20.669,9.999 L41.669,9.999 Z"/>
  </g>
</svg>
