<svg xmlns="http://www.w3.org/2000/svg" width="60" height="60" viewBox="0 0 60 60">
  <g fill="none">
    <rect width="60" height="60"/>
    <path fill="#116DFF" d="M38.741388,49.0399953 C39.9920845,47.7448612 42.1299616,47.7803694 43.5164702,49.1193052 C44.9029788,50.458241 45.0130763,52.5935766 43.7623798,53.8887107 C42.5116833,55.1838448 40.3738062,55.1483365 38.9872976,53.8094007 C37.600789,52.4704649 37.4906915,50.3351294 38.741388,49.0399953 Z M16.2654678,49.030754 C17.5161643,47.7356199 19.6540414,47.7711281 21.04055,49.1100639 C22.4270586,50.4489997 22.5371561,52.5843353 21.2864596,53.8794694 C20.0357632,55.1746035 17.8978861,55.1390952 16.5113775,53.8001594 C15.1248688,52.4612236 15.0147714,50.3258881 16.2654678,49.030754 Z"/>
    <polygon fill="#28BF9A" points="41.58 17.66 33.16 31.15 12.7 18.38 9.14 6.79 21.12 4.89"/>
    <circle cx="17.19" cy="11.71" r="2.27" fill="#FFF"/>
    <polygon fill="#C2E2FF" points="39.14 40 13.75 40 6 20 45 20"/>
    <path fill="#192C55" d="M51.5,13 L55,13 L55,14 L51.5,14 C49.3337718,13.9118066 47.3762747,15.2836926 46.72,17.35 L40,39.76 L41,42.62 C41.3426172,43.5615681 41.1925516,44.6120274 40.6,45.42 C39.8760932,46.4089372 38.7255676,46.9953341 37.5,47 L15,47 L15,46 L37.5,46 C38.4017538,46.0001122 39.2491804,45.5689653 39.78,44.84 C40.1704143,44.3101045 40.2751195,43.622042 40.06,43 L38.93,39.83 L38.93,39.67 L45.71,17.11 C46.4779469,14.5806733 48.858929,12.8905461 51.5,13 Z M15.0019854,23.3047236 L19.862383,35.2864361 L18.9357231,35.6623369 L14.0753255,23.6806244 L15.0019854,23.3047236 Z M29.6290197,23.3052946 L34.4894173,35.2870071 L33.5627574,35.6629079 L28.7023598,23.6811954 L29.6290197,23.3052946 Z M22.3251359,23.3031296 L27.1855335,35.2848421 L26.2588736,35.6607429 L21.3984759,23.6790304 L22.3251359,23.3031296 Z"/>
  </g>
</svg>
