<svg xmlns="http://www.w3.org/2000/svg" width="60" height="60" viewBox="0 0 60 60">
  <g fill="none" fill-rule="evenodd">
    <polygon points="0 60 60 60 60 0 0 0"/>
    <polygon fill="#C2E2FF" points="54 55 6 55 6.32 54.271 6 53.692 6 25 54 25 54 53.7 53.515 53.936"/>
    <polygon fill="#116DFF" points="54 25 47.333 29.444 30 24 12.487 29.325 6 25 30 5"/>
    <polygon fill="#FFF" points="48 12 48 29 30 41 12 29 12 12"/>
    <polygon fill="#C2E2FF" points="54 55 6 55 30 34"/>
    <path fill="#192C55" d="M24.6114,37.4097 L25.4614,37.9697 L15.2014,46.9497 L6.0014,54.9907 L6.0014,53.6597 L24.6114,37.4097 Z M35.392,37.4099 L54,53.6699 L54,54.9899 L49.122,50.7299 L34.542,37.9699 L35.392,37.4099 Z"/>
    <path fill="#28BF9A" d="M37.5,23.5 C37.5,27.642 34.142,31 30,31 C25.858,31 22.5,27.642 22.5,23.5 C22.5,19.358 25.858,16 30,16 C34.142,16 37.5,19.358 37.5,23.5"/>
    <path fill="#FFF" d="M30.0942,22.9287 L30.0942,24.5527 L32.7752,24.5527 C32.5152,25.8057 31.3712,26.6747 30.0942,26.5897 C28.5672,26.4367 27.4042,25.1517 27.4042,23.6167 C27.4042,22.0817 28.5672,20.7967 30.0942,20.6437 C30.7942,20.6327 31.4692,20.8947 31.9782,21.3757 L33.2592,20.1417 C32.4102,19.3217 31.2742,18.8667 30.0942,18.8726414 C27.4862,18.8726414 25.3712,20.9877 25.3712,23.5957 C25.3712,26.2047 27.4862,28.3197 30.0942,28.3197 C32.8222,28.3197 34.6292,26.4007 34.6292,23.7017 C34.6272,23.4387 34.6012,23.1757 34.5522,22.9167 L30.0942,22.9287 Z"/>
  </g>
</svg>
